<?xml version="1.0" encoding="UTF-8" standalone="no"?>
<!DOCTYPE svg PUBLIC "-//W3C//DTD SVG 1.1//EN" "http://www.w3.org/Graphics/SVG/1.1/DTD/svg11.dtd">
<svg width="100%" height="100%" viewBox="0 0 4164 4097" version="1.1" xmlns="http://www.w3.org/2000/svg" xmlns:xlink="http://www.w3.org/1999/xlink" xml:space="preserve" xmlns:serif="http://www.serif.com/" style="fill-rule:evenodd;clip-rule:evenodd;stroke-linejoin:round;stroke-miterlimit:2;">
    <g id="Artboard1" transform="matrix(1,0,0,1,-1315.08,-145.353)">
        <rect x="1315.08" y="145.353" width="4163.87" height="4096.71" style="fill:none;"/>
        <g transform="matrix(0.817981,0,0,0.764634,-449.803,-1134.54)">
            <path d="M3837.03,2264.69C3837.03,2051.56 3675.28,1878.53 3476.05,1878.53L2754.09,1878.53C2554.86,1878.53 2393.11,2051.56 2393.11,2264.69L2393.11,3037.02C2393.11,3250.15 2554.86,3423.19 2754.09,3423.19L3476.05,3423.19C3675.28,3423.19 3837.03,3250.15 3837.03,3037.02L3837.03,2264.69Z"/>
        </g>
        <g transform="matrix(0.817981,0,0,0.764634,872.86,-1134.54)">
            <path d="M3837.03,2264.69C3837.03,2051.56 3675.28,1878.53 3476.05,1878.53L2754.09,1878.53C2554.86,1878.53 2393.11,2051.56 2393.11,2264.69L2393.11,3037.02C2393.11,3250.15 2554.86,3423.19 2754.09,3423.19L3476.05,3423.19C3675.28,3423.19 3837.03,3250.15 3837.03,3037.02L3837.03,2264.69Z"/>
        </g>
        <g transform="matrix(0.817981,0,0,0.764634,2195.51,-1134.54)">
            <path d="M3837.03,2264.69C3837.03,2051.56 3675.28,1878.53 3476.05,1878.53L2754.09,1878.53C2554.86,1878.53 2393.11,2051.56 2393.11,2264.69L2393.11,3037.02C2393.11,3250.15 2554.86,3423.19 2754.09,3423.19L3476.05,3423.19C3675.28,3423.19 3837.03,3250.15 3837.03,3037.02L3837.03,2264.69Z"/>
        </g>
        <g transform="matrix(0.817981,0,0,0.764634,-449.803,188.295)">
            <path d="M3837.03,2264.69C3837.03,2051.56 3675.28,1878.53 3476.05,1878.53L2754.09,1878.53C2554.86,1878.53 2393.11,2051.56 2393.11,2264.69L2393.11,3037.02C2393.11,3250.15 2554.86,3423.19 2754.09,3423.19L3476.05,3423.19C3675.28,3423.19 3837.03,3250.15 3837.03,3037.02L3837.03,2264.69Z"/>
        </g>
        <g transform="matrix(0.817981,0,0,0.764634,872.86,188.295)">
            <path d="M3837.03,2264.69C3837.03,2051.56 3675.28,1878.53 3476.05,1878.53L2754.09,1878.53C2554.86,1878.53 2393.11,2051.56 2393.11,2264.69L2393.11,3037.02C2393.11,3250.15 2554.86,3423.19 2754.09,3423.19L3476.05,3423.19C3675.28,3423.19 3837.03,3250.15 3837.03,3037.02L3837.03,2264.69Z"/>
        </g>
        <g transform="matrix(0.817981,0,0,0.764634,2195.51,188.295)">
            <path d="M3837.03,2264.69C3837.03,2051.56 3675.28,1878.53 3476.05,1878.53L2754.09,1878.53C2554.86,1878.53 2393.11,2051.56 2393.11,2264.69L2393.11,3037.02C2393.11,3250.15 2554.86,3423.19 2754.09,3423.19L3476.05,3423.19C3675.28,3423.19 3837.03,3250.15 3837.03,3037.02L3837.03,2264.69Z"/>
        </g>
        <g transform="matrix(0.817981,0,0,0.764634,-449.803,1511.3)">
            <path d="M3837.03,2264.69C3837.03,2051.56 3675.28,1878.53 3476.05,1878.53L2754.09,1878.53C2554.86,1878.53 2393.11,2051.56 2393.11,2264.69L2393.11,3037.02C2393.11,3250.15 2554.86,3423.19 2754.09,3423.19L3476.05,3423.19C3675.28,3423.19 3837.03,3250.15 3837.03,3037.02L3837.03,2264.69Z"/>
        </g>
        <g transform="matrix(0.817981,0,0,0.764634,872.86,1511.3)">
            <path d="M3837.03,2264.69C3837.03,2051.56 3675.28,1878.53 3476.05,1878.53L2754.09,1878.53C2554.86,1878.53 2393.11,2051.56 2393.11,2264.69L2393.11,3037.02C2393.11,3250.15 2554.86,3423.19 2754.09,3423.19L3476.05,3423.19C3675.28,3423.19 3837.03,3250.15 3837.03,3037.02L3837.03,2264.69Z"/>
        </g>
        <g transform="matrix(0.817981,0,0,0.764634,2195.51,1511.3)">
            <path d="M3837.03,2264.69C3837.03,2051.56 3675.28,1878.53 3476.05,1878.53L2754.09,1878.53C2554.86,1878.53 2393.11,2051.56 2393.11,2264.69L2393.11,3037.02C2393.11,3250.15 2554.86,3423.19 2754.09,3423.19L3476.05,3423.19C3675.28,3423.19 3837.03,3250.15 3837.03,3037.02L3837.03,2264.69Z"/>
        </g>
    </g>
</svg>
